<mxfile host="app.diagrams.net" modified="2021-07-22T05:54:25.560Z" agent="5.0 (X11; Linux x86_64) AppleWebKit/537.36 (KHTML, like Gecko) Chrome/91.0.4472.114 Safari/537.36" etag="zouStcfDiin21BX4foKb" version="14.8.3" type="github">
  <diagram name="Page-1" id="74e2e168-ea6b-b213-b513-2b3c1d86103e">
    <mxGraphModel dx="1415" dy="568" grid="1" gridSize="10" guides="1" tooltips="1" connect="1" arrows="1" fold="1" page="1" pageScale="1" pageWidth="1100" pageHeight="850" background="none" math="0" shadow="0">
      <root>
        <mxCell id="0" />
        <mxCell id="1" parent="0" />
        <mxCell id="77e6c97f196da883-1" value="Pool" style="swimlane;html=1;childLayout=stackLayout;startSize=20;rounded=0;shadow=0;labelBackgroundColor=none;strokeWidth=1;fontFamily=Verdana;fontSize=8;align=center;" parent="1" vertex="1">
          <mxGeometry x="70" y="10" width="800" height="960" as="geometry" />
        </mxCell>
        <mxCell id="77e6c97f196da883-2" value="用户" style="swimlane;html=1;startSize=20;" parent="77e6c97f196da883-1" vertex="1">
          <mxGeometry y="20" width="160" height="940" as="geometry" />
        </mxCell>
        <mxCell id="77e6c97f196da883-8" value="初次开机" style="rounded=1;whiteSpace=wrap;html=1;shadow=0;labelBackgroundColor=none;strokeWidth=1;fontFamily=Verdana;fontSize=8;align=center;" parent="77e6c97f196da883-2" vertex="1">
          <mxGeometry x="20" y="60" width="100" height="60" as="geometry" />
        </mxCell>
        <mxCell id="WiUJJ6gaLQ5Pb7P8ZP3k-75" style="edgeStyle=orthogonalEdgeStyle;rounded=1;orthogonalLoop=1;jettySize=auto;html=1;fontFamily=Verdana;fontSize=8;" edge="1" parent="77e6c97f196da883-2" source="WiUJJ6gaLQ5Pb7P8ZP3k-70" target="WiUJJ6gaLQ5Pb7P8ZP3k-69">
          <mxGeometry relative="1" as="geometry" />
        </mxCell>
        <mxCell id="WiUJJ6gaLQ5Pb7P8ZP3k-70" value="系统安装完成" style="rounded=1;whiteSpace=wrap;html=1;shadow=0;fontFamily=Verdana;fontSize=8;strokeWidth=1;" vertex="1" parent="77e6c97f196da883-2">
          <mxGeometry x="30" y="670" width="100" height="60" as="geometry" />
        </mxCell>
        <mxCell id="WiUJJ6gaLQ5Pb7P8ZP3k-69" value="用户重启系统" style="rounded=1;whiteSpace=wrap;html=1;shadow=0;fontFamily=Verdana;fontSize=8;strokeWidth=1;" vertex="1" parent="77e6c97f196da883-2">
          <mxGeometry x="30" y="760" width="100" height="60" as="geometry" />
        </mxCell>
        <mxCell id="77e6c97f196da883-3" value="内核" style="swimlane;html=1;startSize=20;" parent="77e6c97f196da883-1" vertex="1">
          <mxGeometry x="160" y="20" width="160" height="940" as="geometry" />
        </mxCell>
        <mxCell id="77e6c97f196da883-11" value="引导至live系统" style="rounded=1;whiteSpace=wrap;html=1;shadow=0;labelBackgroundColor=none;strokeWidth=1;fontFamily=Verdana;fontSize=8;align=center;" parent="77e6c97f196da883-3" vertex="1">
          <mxGeometry x="30" y="120" width="100" height="60" as="geometry" />
        </mxCell>
        <mxCell id="WiUJJ6gaLQ5Pb7P8ZP3k-54" value="引导真实文件系统" style="rounded=1;whiteSpace=wrap;html=1;shadow=0;fontFamily=Verdana;fontSize=8;strokeWidth=1;" vertex="1" parent="77e6c97f196da883-3">
          <mxGeometry x="40" y="390" width="100" height="60" as="geometry" />
        </mxCell>
        <mxCell id="WiUJJ6gaLQ5Pb7P8ZP3k-64" value="引导安装器后配置" style="rounded=1;whiteSpace=wrap;html=1;shadow=0;fontFamily=Verdana;fontSize=8;strokeWidth=1;" vertex="1" parent="77e6c97f196da883-3">
          <mxGeometry x="220" y="1080" width="100" height="60" as="geometry" />
        </mxCell>
        <mxCell id="WiUJJ6gaLQ5Pb7P8ZP3k-68" value="内核引导文件系统启动" style="rounded=1;whiteSpace=wrap;html=1;shadow=0;fontFamily=Verdana;fontSize=8;strokeWidth=1;" vertex="1" parent="77e6c97f196da883-3">
          <mxGeometry x="30" y="860" width="100" height="60" as="geometry" />
        </mxCell>
        <mxCell id="77e6c97f196da883-4" value="live系统" style="swimlane;html=1;startSize=20;" parent="77e6c97f196da883-1" vertex="1">
          <mxGeometry x="320" y="20" width="160" height="940" as="geometry" />
        </mxCell>
        <mxCell id="WiUJJ6gaLQ5Pb7P8ZP3k-1" value="启动安装器" style="rounded=1;whiteSpace=wrap;html=1;shadow=0;labelBackgroundColor=none;strokeWidth=1;fontFamily=Verdana;fontSize=8;align=center;" vertex="1" parent="77e6c97f196da883-4">
          <mxGeometry x="40" y="180" width="100" height="60" as="geometry" />
        </mxCell>
        <mxCell id="77e6c97f196da883-5" value="安装器" style="swimlane;html=1;startSize=20;" parent="77e6c97f196da883-1" vertex="1">
          <mxGeometry x="480" y="20" width="160" height="940" as="geometry" />
        </mxCell>
        <mxCell id="WiUJJ6gaLQ5Pb7P8ZP3k-53" style="edgeStyle=orthogonalEdgeStyle;rounded=1;orthogonalLoop=1;jettySize=auto;html=1;entryX=0.5;entryY=0;entryDx=0;entryDy=0;fontFamily=Verdana;fontSize=8;" edge="1" parent="77e6c97f196da883-5" source="WiUJJ6gaLQ5Pb7P8ZP3k-45" target="WiUJJ6gaLQ5Pb7P8ZP3k-52">
          <mxGeometry relative="1" as="geometry" />
        </mxCell>
        <mxCell id="WiUJJ6gaLQ5Pb7P8ZP3k-45" value="解压根文件系统到指定分区" style="rounded=1;whiteSpace=wrap;html=1;shadow=0;labelBackgroundColor=none;strokeWidth=1;fontFamily=Verdana;fontSize=8;align=center;" vertex="1" parent="77e6c97f196da883-5">
          <mxGeometry x="30" y="240" width="100" height="60" as="geometry" />
        </mxCell>
        <mxCell id="WiUJJ6gaLQ5Pb7P8ZP3k-52" value="重启系统" style="rounded=1;whiteSpace=wrap;html=1;shadow=0;fontFamily=Verdana;fontSize=8;strokeWidth=1;" vertex="1" parent="77e6c97f196da883-5">
          <mxGeometry x="30" y="330" width="100" height="60" as="geometry" />
        </mxCell>
        <mxCell id="WiUJJ6gaLQ5Pb7P8ZP3k-62" value="后配置" style="rounded=1;whiteSpace=wrap;html=1;shadow=0;fontFamily=Verdana;fontSize=8;strokeWidth=1;" vertex="1" parent="77e6c97f196da883-5">
          <mxGeometry x="30" y="550" width="100" height="60" as="geometry" />
        </mxCell>
        <mxCell id="77e6c97f196da883-6" value="真实系统" style="swimlane;html=1;startSize=20;" parent="77e6c97f196da883-1" vertex="1">
          <mxGeometry x="640" y="20" width="160" height="940" as="geometry" />
        </mxCell>
        <mxCell id="WiUJJ6gaLQ5Pb7P8ZP3k-56" value="引导安装器后配置" style="rounded=1;whiteSpace=wrap;html=1;shadow=0;fontFamily=Verdana;fontSize=8;strokeWidth=1;" vertex="1" parent="77e6c97f196da883-6">
          <mxGeometry x="30" y="490" width="100" height="60" as="geometry" />
        </mxCell>
        <mxCell id="WiUJJ6gaLQ5Pb7P8ZP3k-63" value="桌面环境正常运行" style="rounded=1;whiteSpace=wrap;html=1;shadow=0;fontFamily=Verdana;fontSize=8;strokeWidth=1;" vertex="1" parent="77e6c97f196da883-6">
          <mxGeometry x="30" y="610" width="100" height="60" as="geometry" />
        </mxCell>
        <mxCell id="WiUJJ6gaLQ5Pb7P8ZP3k-82" value="&lt;span&gt;桌面环境正常运行&lt;/span&gt;" style="rounded=1;whiteSpace=wrap;html=1;shadow=0;fontFamily=Verdana;fontSize=8;strokeWidth=1;" vertex="1" parent="77e6c97f196da883-6">
          <mxGeometry x="30" y="860" width="100" height="60" as="geometry" />
        </mxCell>
        <mxCell id="WiUJJ6gaLQ5Pb7P8ZP3k-2" style="edgeStyle=orthogonalEdgeStyle;rounded=1;orthogonalLoop=1;jettySize=auto;html=1;entryX=0;entryY=0.5;entryDx=0;entryDy=0;exitX=0.5;exitY=1;exitDx=0;exitDy=0;" edge="1" parent="77e6c97f196da883-1" source="77e6c97f196da883-11" target="WiUJJ6gaLQ5Pb7P8ZP3k-1">
          <mxGeometry relative="1" as="geometry" />
        </mxCell>
        <mxCell id="WiUJJ6gaLQ5Pb7P8ZP3k-55" style="edgeStyle=orthogonalEdgeStyle;rounded=1;orthogonalLoop=1;jettySize=auto;html=1;entryX=0.5;entryY=0;entryDx=0;entryDy=0;fontFamily=Verdana;fontSize=8;" edge="1" parent="77e6c97f196da883-1" source="WiUJJ6gaLQ5Pb7P8ZP3k-52" target="WiUJJ6gaLQ5Pb7P8ZP3k-54">
          <mxGeometry relative="1" as="geometry" />
        </mxCell>
        <mxCell id="WiUJJ6gaLQ5Pb7P8ZP3k-57" style="edgeStyle=orthogonalEdgeStyle;rounded=1;orthogonalLoop=1;jettySize=auto;html=1;exitX=0.5;exitY=1;exitDx=0;exitDy=0;fontFamily=Verdana;fontSize=8;" edge="1" parent="77e6c97f196da883-1" source="WiUJJ6gaLQ5Pb7P8ZP3k-54" target="WiUJJ6gaLQ5Pb7P8ZP3k-56">
          <mxGeometry relative="1" as="geometry" />
        </mxCell>
        <mxCell id="WiUJJ6gaLQ5Pb7P8ZP3k-65" style="edgeStyle=orthogonalEdgeStyle;rounded=1;orthogonalLoop=1;jettySize=auto;html=1;entryX=0.5;entryY=0;entryDx=0;entryDy=0;fontFamily=Verdana;fontSize=8;" edge="1" parent="77e6c97f196da883-1" source="WiUJJ6gaLQ5Pb7P8ZP3k-56" target="WiUJJ6gaLQ5Pb7P8ZP3k-62">
          <mxGeometry relative="1" as="geometry" />
        </mxCell>
        <mxCell id="WiUJJ6gaLQ5Pb7P8ZP3k-66" style="edgeStyle=orthogonalEdgeStyle;rounded=1;orthogonalLoop=1;jettySize=auto;html=1;entryX=0.5;entryY=0;entryDx=0;entryDy=0;fontFamily=Verdana;fontSize=8;" edge="1" parent="77e6c97f196da883-1" source="WiUJJ6gaLQ5Pb7P8ZP3k-62" target="WiUJJ6gaLQ5Pb7P8ZP3k-63">
          <mxGeometry relative="1" as="geometry" />
        </mxCell>
        <mxCell id="WiUJJ6gaLQ5Pb7P8ZP3k-72" style="edgeStyle=orthogonalEdgeStyle;rounded=1;orthogonalLoop=1;jettySize=auto;html=1;entryX=0;entryY=0.5;entryDx=0;entryDy=0;fontFamily=Verdana;fontSize=8;exitX=0.5;exitY=1;exitDx=0;exitDy=0;" edge="1" parent="77e6c97f196da883-1" source="WiUJJ6gaLQ5Pb7P8ZP3k-1" target="WiUJJ6gaLQ5Pb7P8ZP3k-45">
          <mxGeometry relative="1" as="geometry" />
        </mxCell>
        <mxCell id="WiUJJ6gaLQ5Pb7P8ZP3k-73" style="edgeStyle=orthogonalEdgeStyle;rounded=1;orthogonalLoop=1;jettySize=auto;html=1;entryX=0;entryY=0.5;entryDx=0;entryDy=0;fontFamily=Verdana;fontSize=8;exitX=0.5;exitY=1;exitDx=0;exitDy=0;" edge="1" parent="77e6c97f196da883-1" source="77e6c97f196da883-8" target="77e6c97f196da883-11">
          <mxGeometry relative="1" as="geometry" />
        </mxCell>
        <mxCell id="WiUJJ6gaLQ5Pb7P8ZP3k-74" style="edgeStyle=orthogonalEdgeStyle;rounded=1;orthogonalLoop=1;jettySize=auto;html=1;entryX=0.5;entryY=0;entryDx=0;entryDy=0;fontFamily=Verdana;fontSize=8;" edge="1" parent="77e6c97f196da883-1" source="WiUJJ6gaLQ5Pb7P8ZP3k-63" target="WiUJJ6gaLQ5Pb7P8ZP3k-70">
          <mxGeometry relative="1" as="geometry" />
        </mxCell>
        <mxCell id="WiUJJ6gaLQ5Pb7P8ZP3k-83" style="edgeStyle=orthogonalEdgeStyle;rounded=1;orthogonalLoop=1;jettySize=auto;html=1;entryX=0;entryY=0.5;entryDx=0;entryDy=0;fontFamily=Verdana;fontSize=8;exitX=0.5;exitY=1;exitDx=0;exitDy=0;" edge="1" parent="77e6c97f196da883-1" source="WiUJJ6gaLQ5Pb7P8ZP3k-69" target="WiUJJ6gaLQ5Pb7P8ZP3k-68">
          <mxGeometry relative="1" as="geometry" />
        </mxCell>
        <mxCell id="WiUJJ6gaLQ5Pb7P8ZP3k-84" style="edgeStyle=orthogonalEdgeStyle;rounded=1;orthogonalLoop=1;jettySize=auto;html=1;entryX=0;entryY=0.5;entryDx=0;entryDy=0;fontFamily=Verdana;fontSize=8;" edge="1" parent="77e6c97f196da883-1" source="WiUJJ6gaLQ5Pb7P8ZP3k-68" target="WiUJJ6gaLQ5Pb7P8ZP3k-82">
          <mxGeometry relative="1" as="geometry" />
        </mxCell>
        <mxCell id="WiUJJ6gaLQ5Pb7P8ZP3k-67" value="引导安装器后配置" style="rounded=1;whiteSpace=wrap;html=1;shadow=0;fontFamily=Verdana;fontSize=8;strokeWidth=1;" vertex="1" parent="1">
          <mxGeometry x="460" y="1120" width="100" height="60" as="geometry" />
        </mxCell>
        <mxCell id="WiUJJ6gaLQ5Pb7P8ZP3k-76" value="" style="endArrow=none;html=1;fontFamily=Verdana;fontSize=8;" edge="1" parent="1">
          <mxGeometry width="50" height="50" relative="1" as="geometry">
            <mxPoint x="70" y="860" as="sourcePoint" />
            <mxPoint x="860" y="860" as="targetPoint" />
          </mxGeometry>
        </mxCell>
        <mxCell id="WiUJJ6gaLQ5Pb7P8ZP3k-78" value="正常使用状态" style="edgeLabel;html=1;align=center;verticalAlign=middle;resizable=0;points=[];fontSize=8;fontFamily=Verdana;spacing=0;" vertex="1" connectable="0" parent="WiUJJ6gaLQ5Pb7P8ZP3k-76">
          <mxGeometry x="0.038" relative="1" as="geometry">
            <mxPoint x="-10" as="offset" />
          </mxGeometry>
        </mxCell>
      </root>
    </mxGraphModel>
  </diagram>
</mxfile>
